<mxfile host="app.diagrams.net" modified="2023-12-13T08:56:39.773Z" agent="Mozilla/5.0 (Windows NT 10.0; Win64; x64) AppleWebKit/537.36 (KHTML, like Gecko) Chrome/92.0.4515.131 Safari/537.36 Edg/92.0.902.67" etag="tMP6V10915jCfYYuDMtL" version="22.1.8" type="github">
  <diagram name="Page-1" id="03018318-947c-dd8e-b7a3-06fadd420f32">
    <mxGraphModel dx="2144" dy="968" grid="1" gridSize="10" guides="1" tooltips="1" connect="1" arrows="1" fold="1" page="1" pageScale="1" pageWidth="1100" pageHeight="850" background="none" math="0" shadow="0">
      <root>
        <mxCell id="0" />
        <mxCell id="1" parent="0" />
        <mxCell id="jTd3bYGisY44pSlO76Ms-1" value="" style="whiteSpace=wrap;html=1;rounded=0;shadow=0;labelBackgroundColor=none;strokeColor=#000000;strokeWidth=1;fillColor=none;fontFamily=Verdana;fontSize=12;fontColor=#000000;align=center;comic=1;" vertex="1" parent="1">
          <mxGeometry x="20" y="20" width="1060" height="1090" as="geometry" />
        </mxCell>
        <mxCell id="jTd3bYGisY44pSlO76Ms-2" value="LOGO" style="whiteSpace=wrap;html=1;rounded=0;shadow=0;labelBackgroundColor=none;strokeWidth=1;fontFamily=Verdana;fontSize=28;align=center;comic=1;" vertex="1" parent="1">
          <mxGeometry x="40" y="30" width="190" height="50" as="geometry" />
        </mxCell>
        <mxCell id="jTd3bYGisY44pSlO76Ms-3" value="" style="line;strokeWidth=1;html=1;rounded=0;shadow=0;labelBackgroundColor=none;fillColor=none;fontFamily=Verdana;fontSize=14;fontColor=#000000;align=center;comic=1;" vertex="1" parent="1">
          <mxGeometry x="20" y="90" width="1060" height="10" as="geometry" />
        </mxCell>
        <mxCell id="jTd3bYGisY44pSlO76Ms-5" value="--Piih--" style="strokeWidth=1;shadow=0;dashed=0;align=center;html=1;shape=mxgraph.mockup.forms.comboBox;strokeColor=#999999;fillColor=#ddeeff;align=left;fillColor2=#aaddff;mainText=;fontColor=#666666;fontSize=17;spacingLeft=3;" vertex="1" parent="1">
          <mxGeometry x="60" y="221" width="550" height="30" as="geometry" />
        </mxCell>
        <mxCell id="jTd3bYGisY44pSlO76Ms-6" value="Unit Kerja" style="text;html=1;points=[];align=left;verticalAlign=top;spacingTop=-4;fontSize=14;fontFamily=Verdana" vertex="1" parent="1">
          <mxGeometry x="60" y="191" width="170" height="20" as="geometry" />
        </mxCell>
        <mxCell id="jTd3bYGisY44pSlO76Ms-7" value="" style="whiteSpace=wrap;html=1;rounded=0;shadow=0;labelBackgroundColor=none;strokeWidth=1;fillColor=none;fontFamily=Verdana;fontSize=12;align=center;comic=1;" vertex="1" parent="1">
          <mxGeometry x="37.5" y="140" width="1020" height="220" as="geometry" />
        </mxCell>
        <mxCell id="jTd3bYGisY44pSlO76Ms-8" value="Dashboard Data Kinerja Pegawai" style="text;html=1;points=[];align=left;verticalAlign=top;spacingTop=-4;fontSize=14;fontFamily=Verdana" vertex="1" parent="1">
          <mxGeometry x="45" y="110" width="170" height="20" as="geometry" />
        </mxCell>
        <mxCell id="jTd3bYGisY44pSlO76Ms-9" value="&lt;font style=&quot;font-size: 12px;&quot;&gt;Data Kinerja Pegawai&lt;/font&gt;" style="strokeWidth=1;shadow=0;dashed=0;align=center;html=1;shape=mxgraph.mockup.buttons.button;strokeColor=#666666;fontColor=#ffffff;mainText=;buttonStyle=round;fontSize=17;fontStyle=1;fillColor=#008cff;whiteSpace=wrap;" vertex="1" parent="1">
          <mxGeometry x="930" y="105" width="130" height="30" as="geometry" />
        </mxCell>
        <mxCell id="jTd3bYGisY44pSlO76Ms-30" value="&lt;font style=&quot;font-size: 14px;&quot;&gt;Filter&lt;/font&gt;" style="strokeWidth=1;shadow=0;dashed=0;align=center;html=1;shape=mxgraph.mockup.buttons.button;strokeColor=#666666;fontColor=#ffffff;mainText=;buttonStyle=round;fontSize=17;fontStyle=1;fillColor=#008cff;whiteSpace=wrap;" vertex="1" parent="1">
          <mxGeometry x="55" y="150" width="65" height="30" as="geometry" />
        </mxCell>
        <mxCell id="jTd3bYGisY44pSlO76Ms-31" value="Nama Pegawai" style="text;html=1;points=[];align=left;verticalAlign=top;spacingTop=-4;fontSize=14;fontFamily=Verdana" vertex="1" parent="1">
          <mxGeometry x="60" y="270" width="170" height="20" as="geometry" />
        </mxCell>
        <mxCell id="jTd3bYGisY44pSlO76Ms-32" value="NIP Pegawai" style="text;html=1;points=[];align=left;verticalAlign=top;spacingTop=-4;fontSize=14;fontFamily=Verdana" vertex="1" parent="1">
          <mxGeometry x="340" y="270" width="170" height="20" as="geometry" />
        </mxCell>
        <mxCell id="jTd3bYGisY44pSlO76Ms-33" value="Jabatan Pegawai" style="text;html=1;points=[];align=left;verticalAlign=top;spacingTop=-4;fontSize=14;fontFamily=Verdana" vertex="1" parent="1">
          <mxGeometry x="620" y="270" width="170" height="20" as="geometry" />
        </mxCell>
        <mxCell id="jTd3bYGisY44pSlO76Ms-34" value="" style="strokeWidth=1;shadow=0;dashed=0;align=center;html=1;shape=mxgraph.mockup.text.textBox;fontColor=#666666;align=left;fontSize=17;spacingLeft=4;spacingTop=-3;whiteSpace=wrap;strokeColor=#666666;mainText=" vertex="1" parent="1">
          <mxGeometry x="60" y="290" width="250" height="30" as="geometry" />
        </mxCell>
        <mxCell id="jTd3bYGisY44pSlO76Ms-35" value="" style="strokeWidth=1;shadow=0;dashed=0;align=center;html=1;shape=mxgraph.mockup.text.textBox;fontColor=#666666;align=left;fontSize=17;spacingLeft=4;spacingTop=-3;whiteSpace=wrap;strokeColor=#666666;mainText=" vertex="1" parent="1">
          <mxGeometry x="340" y="290" width="250" height="30" as="geometry" />
        </mxCell>
        <mxCell id="jTd3bYGisY44pSlO76Ms-36" value="" style="strokeWidth=1;shadow=0;dashed=0;align=center;html=1;shape=mxgraph.mockup.text.textBox;fontColor=#666666;align=left;fontSize=17;spacingLeft=4;spacingTop=-3;whiteSpace=wrap;strokeColor=#666666;mainText=" vertex="1" parent="1">
          <mxGeometry x="620" y="290" width="250" height="30" as="geometry" />
        </mxCell>
        <mxCell id="jTd3bYGisY44pSlO76Ms-37" value="" style="whiteSpace=wrap;html=1;rounded=0;shadow=0;labelBackgroundColor=none;strokeWidth=1;fillColor=none;fontFamily=Verdana;fontSize=12;align=center;comic=1;" vertex="1" parent="1">
          <mxGeometry x="40" y="390" width="1020" height="680" as="geometry" />
        </mxCell>
        <mxCell id="jTd3bYGisY44pSlO76Ms-39" value="" style="shape=table;html=1;whiteSpace=wrap;startSize=0;container=1;collapsible=0;childLayout=tableLayout;strokeWidth=2;" vertex="1" parent="1">
          <mxGeometry x="70" y="430" width="490" height="570" as="geometry" />
        </mxCell>
        <mxCell id="jTd3bYGisY44pSlO76Ms-40" value="" style="shape=tableRow;horizontal=0;startSize=60;swimlaneHead=0;swimlaneBody=0;top=0;left=0;bottom=0;right=0;collapsible=0;dropTarget=0;fillColor=none;points=[[0,0.5],[1,0.5]];portConstraint=eastwest;" vertex="1" parent="jTd3bYGisY44pSlO76Ms-39">
          <mxGeometry width="490" height="98" as="geometry" />
        </mxCell>
        <mxCell id="jTd3bYGisY44pSlO76Ms-41" value="Pegawai" style="shape=partialRectangle;html=1;whiteSpace=wrap;connectable=0;fillColor=none;top=0;left=0;bottom=0;right=0;overflow=hidden;fontStyle=1" vertex="1" parent="jTd3bYGisY44pSlO76Ms-40">
          <mxGeometry x="60" width="215" height="98" as="geometry">
            <mxRectangle width="215" height="98" as="alternateBounds" />
          </mxGeometry>
        </mxCell>
        <mxCell id="jTd3bYGisY44pSlO76Ms-42" value="Jabatan" style="shape=partialRectangle;html=1;whiteSpace=wrap;connectable=0;fillColor=none;top=0;left=0;bottom=0;right=0;overflow=hidden;fontStyle=1" vertex="1" parent="jTd3bYGisY44pSlO76Ms-40">
          <mxGeometry x="275" width="215" height="98" as="geometry">
            <mxRectangle width="215" height="98" as="alternateBounds" />
          </mxGeometry>
        </mxCell>
        <mxCell id="jTd3bYGisY44pSlO76Ms-77" value="" style="shape=tableRow;horizontal=0;startSize=60;swimlaneHead=0;swimlaneBody=0;top=0;left=0;bottom=0;right=0;collapsible=0;dropTarget=0;fillColor=none;points=[[0,0.5],[1,0.5]];portConstraint=eastwest;" vertex="1" parent="jTd3bYGisY44pSlO76Ms-39">
          <mxGeometry y="98" width="490" height="92" as="geometry" />
        </mxCell>
        <mxCell id="jTd3bYGisY44pSlO76Ms-78" value="EVA&amp;nbsp;&lt;br style=&quot;box-sizing: border-box; color: rgb(73, 80, 87); font-family: Inter, &amp;quot;Helvetica Neue&amp;quot;, Arial, -apple-system, BlinkMacSystemFont, &amp;quot;Segoe UI&amp;quot;, Roboto, &amp;quot;Noto Sans&amp;quot;, sans-serif, &amp;quot;Apple Color Emoji&amp;quot;, &amp;quot;Segoe UI Emoji&amp;quot;, &amp;quot;Segoe UI Symbol&amp;quot;, &amp;quot;Noto Color Emoji&amp;quot;; font-size: 14px; background-color: rgb(255, 255, 255);&quot;&gt;&lt;span style=&quot;color: rgb(73, 80, 87); font-family: Inter, &amp;quot;Helvetica Neue&amp;quot;, Arial, -apple-system, BlinkMacSystemFont, &amp;quot;Segoe UI&amp;quot;, Roboto, &amp;quot;Noto Sans&amp;quot;, sans-serif, &amp;quot;Apple Color Emoji&amp;quot;, &amp;quot;Segoe UI Emoji&amp;quot;, &amp;quot;Segoe UI Symbol&amp;quot;, &amp;quot;Noto Color Emoji&amp;quot;; font-size: 14px; background-color: rgb(255, 255, 255);&quot;&gt;NIP.&amp;nbsp;&lt;/span&gt;&lt;span style=&quot;color: rgb(73, 80, 87); font-family: Inter, &amp;quot;Helvetica Neue&amp;quot;, Arial, -apple-system, BlinkMacSystemFont, &amp;quot;Segoe UI&amp;quot;, Roboto, &amp;quot;Noto Sans&amp;quot;, sans-serif, &amp;quot;Apple Color Emoji&amp;quot;, &amp;quot;Segoe UI Emoji&amp;quot;, &amp;quot;Segoe UI Symbol&amp;quot;, &amp;quot;Noto Color Emoji&amp;quot;; font-size: 14px; background-color: rgb(255, 255, 255);&quot;&gt;1986070&lt;/span&gt;" style="shape=partialRectangle;html=1;whiteSpace=wrap;connectable=0;fillColor=none;top=0;left=0;bottom=0;right=0;overflow=hidden;align=left;" vertex="1" parent="jTd3bYGisY44pSlO76Ms-77">
          <mxGeometry x="60" width="215" height="92" as="geometry">
            <mxRectangle width="215" height="92" as="alternateBounds" />
          </mxGeometry>
        </mxCell>
        <mxCell id="jTd3bYGisY44pSlO76Ms-79" value="Pranata Komputer Terampil (P3K)" style="shape=partialRectangle;html=1;whiteSpace=wrap;connectable=0;fillColor=none;top=0;left=0;bottom=0;right=0;overflow=hidden;" vertex="1" parent="jTd3bYGisY44pSlO76Ms-77">
          <mxGeometry x="275" width="215" height="92" as="geometry">
            <mxRectangle width="215" height="92" as="alternateBounds" />
          </mxGeometry>
        </mxCell>
        <mxCell id="jTd3bYGisY44pSlO76Ms-83" value="" style="shape=tableRow;horizontal=0;startSize=60;swimlaneHead=0;swimlaneBody=0;top=0;left=0;bottom=0;right=0;collapsible=0;dropTarget=0;fillColor=none;points=[[0,0.5],[1,0.5]];portConstraint=eastwest;" vertex="1" parent="jTd3bYGisY44pSlO76Ms-39">
          <mxGeometry y="190" width="490" height="94" as="geometry" />
        </mxCell>
        <mxCell id="jTd3bYGisY44pSlO76Ms-84" value="EVA&amp;nbsp;&lt;br style=&quot;border-color: var(--border-color); box-sizing: border-box; color: rgb(73, 80, 87); font-family: Inter, &amp;quot;Helvetica Neue&amp;quot;, Arial, -apple-system, BlinkMacSystemFont, &amp;quot;Segoe UI&amp;quot;, Roboto, &amp;quot;Noto Sans&amp;quot;, sans-serif, &amp;quot;Apple Color Emoji&amp;quot;, &amp;quot;Segoe UI Emoji&amp;quot;, &amp;quot;Segoe UI Symbol&amp;quot;, &amp;quot;Noto Color Emoji&amp;quot;; font-size: 14px; background-color: rgb(255, 255, 255);&quot;&gt;&lt;span style=&quot;border-color: var(--border-color); color: rgb(73, 80, 87); font-family: Inter, &amp;quot;Helvetica Neue&amp;quot;, Arial, -apple-system, BlinkMacSystemFont, &amp;quot;Segoe UI&amp;quot;, Roboto, &amp;quot;Noto Sans&amp;quot;, sans-serif, &amp;quot;Apple Color Emoji&amp;quot;, &amp;quot;Segoe UI Emoji&amp;quot;, &amp;quot;Segoe UI Symbol&amp;quot;, &amp;quot;Noto Color Emoji&amp;quot;; font-size: 14px; background-color: rgb(255, 255, 255);&quot;&gt;NIP.&amp;nbsp;&lt;/span&gt;&lt;span style=&quot;border-color: var(--border-color); color: rgb(73, 80, 87); font-family: Inter, &amp;quot;Helvetica Neue&amp;quot;, Arial, -apple-system, BlinkMacSystemFont, &amp;quot;Segoe UI&amp;quot;, Roboto, &amp;quot;Noto Sans&amp;quot;, sans-serif, &amp;quot;Apple Color Emoji&amp;quot;, &amp;quot;Segoe UI Emoji&amp;quot;, &amp;quot;Segoe UI Symbol&amp;quot;, &amp;quot;Noto Color Emoji&amp;quot;; font-size: 14px; background-color: rgb(255, 255, 255);&quot;&gt;1986070&lt;/span&gt;" style="shape=partialRectangle;html=1;whiteSpace=wrap;connectable=0;fillColor=none;top=0;left=0;bottom=0;right=0;overflow=hidden;align=left;" vertex="1" parent="jTd3bYGisY44pSlO76Ms-83">
          <mxGeometry x="60" width="215" height="94" as="geometry">
            <mxRectangle width="215" height="94" as="alternateBounds" />
          </mxGeometry>
        </mxCell>
        <mxCell id="jTd3bYGisY44pSlO76Ms-85" value="Pranata Komputer Terampil (P3K)" style="shape=partialRectangle;html=1;whiteSpace=wrap;connectable=0;fillColor=none;top=0;left=0;bottom=0;right=0;overflow=hidden;" vertex="1" parent="jTd3bYGisY44pSlO76Ms-83">
          <mxGeometry x="275" width="215" height="94" as="geometry">
            <mxRectangle width="215" height="94" as="alternateBounds" />
          </mxGeometry>
        </mxCell>
        <mxCell id="jTd3bYGisY44pSlO76Ms-80" value="" style="shape=tableRow;horizontal=0;startSize=60;swimlaneHead=0;swimlaneBody=0;top=0;left=0;bottom=0;right=0;collapsible=0;dropTarget=0;fillColor=none;points=[[0,0.5],[1,0.5]];portConstraint=eastwest;" vertex="1" parent="jTd3bYGisY44pSlO76Ms-39">
          <mxGeometry y="284" width="490" height="94" as="geometry" />
        </mxCell>
        <mxCell id="jTd3bYGisY44pSlO76Ms-81" value="EVA&amp;nbsp;&lt;br style=&quot;border-color: var(--border-color); box-sizing: border-box; color: rgb(73, 80, 87); font-family: Inter, &amp;quot;Helvetica Neue&amp;quot;, Arial, -apple-system, BlinkMacSystemFont, &amp;quot;Segoe UI&amp;quot;, Roboto, &amp;quot;Noto Sans&amp;quot;, sans-serif, &amp;quot;Apple Color Emoji&amp;quot;, &amp;quot;Segoe UI Emoji&amp;quot;, &amp;quot;Segoe UI Symbol&amp;quot;, &amp;quot;Noto Color Emoji&amp;quot;; font-size: 14px; background-color: rgb(255, 255, 255);&quot;&gt;&lt;span style=&quot;border-color: var(--border-color); color: rgb(73, 80, 87); font-family: Inter, &amp;quot;Helvetica Neue&amp;quot;, Arial, -apple-system, BlinkMacSystemFont, &amp;quot;Segoe UI&amp;quot;, Roboto, &amp;quot;Noto Sans&amp;quot;, sans-serif, &amp;quot;Apple Color Emoji&amp;quot;, &amp;quot;Segoe UI Emoji&amp;quot;, &amp;quot;Segoe UI Symbol&amp;quot;, &amp;quot;Noto Color Emoji&amp;quot;; font-size: 14px; background-color: rgb(255, 255, 255);&quot;&gt;NIP.&amp;nbsp;&lt;/span&gt;&lt;span style=&quot;border-color: var(--border-color); color: rgb(73, 80, 87); font-family: Inter, &amp;quot;Helvetica Neue&amp;quot;, Arial, -apple-system, BlinkMacSystemFont, &amp;quot;Segoe UI&amp;quot;, Roboto, &amp;quot;Noto Sans&amp;quot;, sans-serif, &amp;quot;Apple Color Emoji&amp;quot;, &amp;quot;Segoe UI Emoji&amp;quot;, &amp;quot;Segoe UI Symbol&amp;quot;, &amp;quot;Noto Color Emoji&amp;quot;; font-size: 14px; background-color: rgb(255, 255, 255);&quot;&gt;1986070&lt;/span&gt;" style="shape=partialRectangle;html=1;whiteSpace=wrap;connectable=0;fillColor=none;top=0;left=0;bottom=0;right=0;overflow=hidden;align=left;" vertex="1" parent="jTd3bYGisY44pSlO76Ms-80">
          <mxGeometry x="60" width="215" height="94" as="geometry">
            <mxRectangle width="215" height="94" as="alternateBounds" />
          </mxGeometry>
        </mxCell>
        <mxCell id="jTd3bYGisY44pSlO76Ms-82" value="Pranata Komputer Terampil (P3K)" style="shape=partialRectangle;html=1;whiteSpace=wrap;connectable=0;fillColor=none;top=0;left=0;bottom=0;right=0;overflow=hidden;" vertex="1" parent="jTd3bYGisY44pSlO76Ms-80">
          <mxGeometry x="275" width="215" height="94" as="geometry">
            <mxRectangle width="215" height="94" as="alternateBounds" />
          </mxGeometry>
        </mxCell>
        <mxCell id="jTd3bYGisY44pSlO76Ms-43" value="" style="shape=tableRow;horizontal=0;startSize=60;swimlaneHead=0;swimlaneBody=0;top=0;left=0;bottom=0;right=0;collapsible=0;dropTarget=0;fillColor=none;points=[[0,0.5],[1,0.5]];portConstraint=eastwest;" vertex="1" parent="jTd3bYGisY44pSlO76Ms-39">
          <mxGeometry y="378" width="490" height="94" as="geometry" />
        </mxCell>
        <mxCell id="jTd3bYGisY44pSlO76Ms-44" value="EVA&amp;nbsp;&lt;br style=&quot;border-color: var(--border-color); box-sizing: border-box; color: rgb(73, 80, 87); font-family: Inter, &amp;quot;Helvetica Neue&amp;quot;, Arial, -apple-system, BlinkMacSystemFont, &amp;quot;Segoe UI&amp;quot;, Roboto, &amp;quot;Noto Sans&amp;quot;, sans-serif, &amp;quot;Apple Color Emoji&amp;quot;, &amp;quot;Segoe UI Emoji&amp;quot;, &amp;quot;Segoe UI Symbol&amp;quot;, &amp;quot;Noto Color Emoji&amp;quot;; font-size: 14px; background-color: rgb(255, 255, 255);&quot;&gt;&lt;span style=&quot;border-color: var(--border-color); color: rgb(73, 80, 87); font-family: Inter, &amp;quot;Helvetica Neue&amp;quot;, Arial, -apple-system, BlinkMacSystemFont, &amp;quot;Segoe UI&amp;quot;, Roboto, &amp;quot;Noto Sans&amp;quot;, sans-serif, &amp;quot;Apple Color Emoji&amp;quot;, &amp;quot;Segoe UI Emoji&amp;quot;, &amp;quot;Segoe UI Symbol&amp;quot;, &amp;quot;Noto Color Emoji&amp;quot;; font-size: 14px; background-color: rgb(255, 255, 255);&quot;&gt;NIP.&amp;nbsp;&lt;/span&gt;&lt;span style=&quot;border-color: var(--border-color); color: rgb(73, 80, 87); font-family: Inter, &amp;quot;Helvetica Neue&amp;quot;, Arial, -apple-system, BlinkMacSystemFont, &amp;quot;Segoe UI&amp;quot;, Roboto, &amp;quot;Noto Sans&amp;quot;, sans-serif, &amp;quot;Apple Color Emoji&amp;quot;, &amp;quot;Segoe UI Emoji&amp;quot;, &amp;quot;Segoe UI Symbol&amp;quot;, &amp;quot;Noto Color Emoji&amp;quot;; font-size: 14px; background-color: rgb(255, 255, 255);&quot;&gt;1986070&lt;/span&gt;" style="shape=partialRectangle;html=1;whiteSpace=wrap;connectable=0;fillColor=none;top=0;left=0;bottom=0;right=0;overflow=hidden;align=left;" vertex="1" parent="jTd3bYGisY44pSlO76Ms-43">
          <mxGeometry x="60" width="215" height="94" as="geometry">
            <mxRectangle width="215" height="94" as="alternateBounds" />
          </mxGeometry>
        </mxCell>
        <mxCell id="jTd3bYGisY44pSlO76Ms-45" value="Pranata Komputer Terampil (P3K)" style="shape=partialRectangle;html=1;whiteSpace=wrap;connectable=0;fillColor=none;top=0;left=0;bottom=0;right=0;overflow=hidden;" vertex="1" parent="jTd3bYGisY44pSlO76Ms-43">
          <mxGeometry x="275" width="215" height="94" as="geometry">
            <mxRectangle width="215" height="94" as="alternateBounds" />
          </mxGeometry>
        </mxCell>
        <mxCell id="jTd3bYGisY44pSlO76Ms-46" value="" style="shape=tableRow;horizontal=0;startSize=60;swimlaneHead=0;swimlaneBody=0;top=0;left=0;bottom=0;right=0;collapsible=0;dropTarget=0;fillColor=none;points=[[0,0.5],[1,0.5]];portConstraint=eastwest;" vertex="1" parent="jTd3bYGisY44pSlO76Ms-39">
          <mxGeometry y="472" width="490" height="98" as="geometry" />
        </mxCell>
        <mxCell id="jTd3bYGisY44pSlO76Ms-47" value="EVA&amp;nbsp;&lt;br style=&quot;border-color: var(--border-color); box-sizing: border-box; color: rgb(73, 80, 87); font-family: Inter, &amp;quot;Helvetica Neue&amp;quot;, Arial, -apple-system, BlinkMacSystemFont, &amp;quot;Segoe UI&amp;quot;, Roboto, &amp;quot;Noto Sans&amp;quot;, sans-serif, &amp;quot;Apple Color Emoji&amp;quot;, &amp;quot;Segoe UI Emoji&amp;quot;, &amp;quot;Segoe UI Symbol&amp;quot;, &amp;quot;Noto Color Emoji&amp;quot;; font-size: 14px; background-color: rgb(255, 255, 255);&quot;&gt;&lt;span style=&quot;border-color: var(--border-color); color: rgb(73, 80, 87); font-family: Inter, &amp;quot;Helvetica Neue&amp;quot;, Arial, -apple-system, BlinkMacSystemFont, &amp;quot;Segoe UI&amp;quot;, Roboto, &amp;quot;Noto Sans&amp;quot;, sans-serif, &amp;quot;Apple Color Emoji&amp;quot;, &amp;quot;Segoe UI Emoji&amp;quot;, &amp;quot;Segoe UI Symbol&amp;quot;, &amp;quot;Noto Color Emoji&amp;quot;; font-size: 14px; background-color: rgb(255, 255, 255);&quot;&gt;NIP.&amp;nbsp;&lt;/span&gt;&lt;span style=&quot;border-color: var(--border-color); color: rgb(73, 80, 87); font-family: Inter, &amp;quot;Helvetica Neue&amp;quot;, Arial, -apple-system, BlinkMacSystemFont, &amp;quot;Segoe UI&amp;quot;, Roboto, &amp;quot;Noto Sans&amp;quot;, sans-serif, &amp;quot;Apple Color Emoji&amp;quot;, &amp;quot;Segoe UI Emoji&amp;quot;, &amp;quot;Segoe UI Symbol&amp;quot;, &amp;quot;Noto Color Emoji&amp;quot;; font-size: 14px; background-color: rgb(255, 255, 255);&quot;&gt;1986070&lt;/span&gt;" style="shape=partialRectangle;html=1;whiteSpace=wrap;connectable=0;fillColor=none;top=0;left=0;bottom=0;right=0;overflow=hidden;align=left;" vertex="1" parent="jTd3bYGisY44pSlO76Ms-46">
          <mxGeometry x="60" width="215" height="98" as="geometry">
            <mxRectangle width="215" height="98" as="alternateBounds" />
          </mxGeometry>
        </mxCell>
        <mxCell id="jTd3bYGisY44pSlO76Ms-48" value="Pranata Komputer Terampil (P3K)" style="shape=partialRectangle;html=1;whiteSpace=wrap;connectable=0;fillColor=none;top=0;left=0;bottom=0;right=0;overflow=hidden;" vertex="1" parent="jTd3bYGisY44pSlO76Ms-46">
          <mxGeometry x="275" width="215" height="98" as="geometry">
            <mxRectangle width="215" height="98" as="alternateBounds" />
          </mxGeometry>
        </mxCell>
        <mxCell id="jTd3bYGisY44pSlO76Ms-49" value="" style="shape=table;html=1;whiteSpace=wrap;startSize=0;container=1;collapsible=0;childLayout=tableLayout;strokeWidth=2;" vertex="1" parent="1">
          <mxGeometry x="559" y="429" width="470" height="571" as="geometry" />
        </mxCell>
        <mxCell id="jTd3bYGisY44pSlO76Ms-50" value="" style="shape=tableRow;horizontal=0;startSize=0;swimlaneHead=0;swimlaneBody=0;top=0;left=0;bottom=0;right=0;collapsible=0;dropTarget=0;fillColor=none;points=[[0,0.5],[1,0.5]];portConstraint=eastwest;" vertex="1" parent="jTd3bYGisY44pSlO76Ms-49">
          <mxGeometry width="470" height="99" as="geometry" />
        </mxCell>
        <mxCell id="jTd3bYGisY44pSlO76Ms-51" value="Unit Kerja" style="shape=partialRectangle;html=1;whiteSpace=wrap;connectable=0;fillColor=none;top=0;left=0;bottom=0;right=0;overflow=hidden;fontStyle=1" vertex="1" parent="jTd3bYGisY44pSlO76Ms-50">
          <mxGeometry width="235" height="99" as="geometry">
            <mxRectangle width="235" height="99" as="alternateBounds" />
          </mxGeometry>
        </mxCell>
        <mxCell id="jTd3bYGisY44pSlO76Ms-52" value="" style="shape=partialRectangle;html=1;whiteSpace=wrap;connectable=0;fillColor=none;top=0;left=0;bottom=0;right=0;overflow=hidden;fontStyle=1" vertex="1" parent="jTd3bYGisY44pSlO76Ms-50">
          <mxGeometry x="235" width="235" height="99" as="geometry">
            <mxRectangle width="235" height="99" as="alternateBounds" />
          </mxGeometry>
        </mxCell>
        <mxCell id="jTd3bYGisY44pSlO76Ms-53" value="" style="shape=tableRow;horizontal=0;startSize=0;swimlaneHead=0;swimlaneBody=0;top=0;left=0;bottom=0;right=0;collapsible=0;dropTarget=0;fillColor=none;points=[[0,0.5],[1,0.5]];portConstraint=eastwest;" vertex="1" parent="jTd3bYGisY44pSlO76Ms-49">
          <mxGeometry y="99" width="470" height="94" as="geometry" />
        </mxCell>
        <mxCell id="jTd3bYGisY44pSlO76Ms-54" value="BIRO PENGADAAN BARANG/JASA" style="shape=partialRectangle;html=1;whiteSpace=wrap;connectable=0;fillColor=none;top=0;left=0;bottom=0;right=0;overflow=hidden;" vertex="1" parent="jTd3bYGisY44pSlO76Ms-53">
          <mxGeometry width="235" height="94" as="geometry">
            <mxRectangle width="235" height="94" as="alternateBounds" />
          </mxGeometry>
        </mxCell>
        <mxCell id="jTd3bYGisY44pSlO76Ms-55" value="Kehadiran | Kinerja" style="shape=partialRectangle;html=1;whiteSpace=wrap;connectable=0;fillColor=none;top=0;left=0;bottom=0;right=0;overflow=hidden;" vertex="1" parent="jTd3bYGisY44pSlO76Ms-53">
          <mxGeometry x="235" width="235" height="94" as="geometry">
            <mxRectangle width="235" height="94" as="alternateBounds" />
          </mxGeometry>
        </mxCell>
        <mxCell id="jTd3bYGisY44pSlO76Ms-56" value="" style="shape=tableRow;horizontal=0;startSize=0;swimlaneHead=0;swimlaneBody=0;top=0;left=0;bottom=0;right=0;collapsible=0;dropTarget=0;fillColor=none;points=[[0,0.5],[1,0.5]];portConstraint=eastwest;" vertex="1" parent="jTd3bYGisY44pSlO76Ms-49">
          <mxGeometry y="193" width="470" height="95" as="geometry" />
        </mxCell>
        <mxCell id="jTd3bYGisY44pSlO76Ms-57" value="BIRO PENGADAAN BARANG/JASA" style="shape=partialRectangle;html=1;whiteSpace=wrap;connectable=0;fillColor=none;top=0;left=0;bottom=0;right=0;overflow=hidden;" vertex="1" parent="jTd3bYGisY44pSlO76Ms-56">
          <mxGeometry width="235" height="95" as="geometry">
            <mxRectangle width="235" height="95" as="alternateBounds" />
          </mxGeometry>
        </mxCell>
        <mxCell id="jTd3bYGisY44pSlO76Ms-58" value="Kehadiran | Kinerja" style="shape=partialRectangle;html=1;whiteSpace=wrap;connectable=0;fillColor=none;top=0;left=0;bottom=0;right=0;overflow=hidden;" vertex="1" parent="jTd3bYGisY44pSlO76Ms-56">
          <mxGeometry x="235" width="235" height="95" as="geometry">
            <mxRectangle width="235" height="95" as="alternateBounds" />
          </mxGeometry>
        </mxCell>
        <mxCell id="jTd3bYGisY44pSlO76Ms-92" value="" style="shape=tableRow;horizontal=0;startSize=0;swimlaneHead=0;swimlaneBody=0;top=0;left=0;bottom=0;right=0;collapsible=0;dropTarget=0;fillColor=none;points=[[0,0.5],[1,0.5]];portConstraint=eastwest;" vertex="1" parent="jTd3bYGisY44pSlO76Ms-49">
          <mxGeometry y="288" width="470" height="94" as="geometry" />
        </mxCell>
        <mxCell id="jTd3bYGisY44pSlO76Ms-93" value="BIRO PENGADAAN BARANG/JASA" style="shape=partialRectangle;html=1;whiteSpace=wrap;connectable=0;fillColor=none;top=0;left=0;bottom=0;right=0;overflow=hidden;" vertex="1" parent="jTd3bYGisY44pSlO76Ms-92">
          <mxGeometry width="235" height="94" as="geometry">
            <mxRectangle width="235" height="94" as="alternateBounds" />
          </mxGeometry>
        </mxCell>
        <mxCell id="jTd3bYGisY44pSlO76Ms-94" value="Kehadiran | Kinerja" style="shape=partialRectangle;html=1;whiteSpace=wrap;connectable=0;fillColor=none;top=0;left=0;bottom=0;right=0;overflow=hidden;" vertex="1" parent="jTd3bYGisY44pSlO76Ms-92">
          <mxGeometry x="235" width="235" height="94" as="geometry">
            <mxRectangle width="235" height="94" as="alternateBounds" />
          </mxGeometry>
        </mxCell>
        <mxCell id="jTd3bYGisY44pSlO76Ms-89" value="" style="shape=tableRow;horizontal=0;startSize=0;swimlaneHead=0;swimlaneBody=0;top=0;left=0;bottom=0;right=0;collapsible=0;dropTarget=0;fillColor=none;points=[[0,0.5],[1,0.5]];portConstraint=eastwest;" vertex="1" parent="jTd3bYGisY44pSlO76Ms-49">
          <mxGeometry y="382" width="470" height="95" as="geometry" />
        </mxCell>
        <mxCell id="jTd3bYGisY44pSlO76Ms-90" value="BIRO PENGADAAN BARANG/JASA" style="shape=partialRectangle;html=1;whiteSpace=wrap;connectable=0;fillColor=none;top=0;left=0;bottom=0;right=0;overflow=hidden;" vertex="1" parent="jTd3bYGisY44pSlO76Ms-89">
          <mxGeometry width="235" height="95" as="geometry">
            <mxRectangle width="235" height="95" as="alternateBounds" />
          </mxGeometry>
        </mxCell>
        <mxCell id="jTd3bYGisY44pSlO76Ms-91" value="Kehadiran | Kinerja" style="shape=partialRectangle;html=1;whiteSpace=wrap;connectable=0;fillColor=none;top=0;left=0;bottom=0;right=0;overflow=hidden;" vertex="1" parent="jTd3bYGisY44pSlO76Ms-89">
          <mxGeometry x="235" width="235" height="95" as="geometry">
            <mxRectangle width="235" height="95" as="alternateBounds" />
          </mxGeometry>
        </mxCell>
        <mxCell id="jTd3bYGisY44pSlO76Ms-86" value="" style="shape=tableRow;horizontal=0;startSize=0;swimlaneHead=0;swimlaneBody=0;top=0;left=0;bottom=0;right=0;collapsible=0;dropTarget=0;fillColor=none;points=[[0,0.5],[1,0.5]];portConstraint=eastwest;" vertex="1" parent="jTd3bYGisY44pSlO76Ms-49">
          <mxGeometry y="477" width="470" height="94" as="geometry" />
        </mxCell>
        <mxCell id="jTd3bYGisY44pSlO76Ms-87" value="BIRO PENGADAAN BARANG/JASA" style="shape=partialRectangle;html=1;whiteSpace=wrap;connectable=0;fillColor=none;top=0;left=0;bottom=0;right=0;overflow=hidden;" vertex="1" parent="jTd3bYGisY44pSlO76Ms-86">
          <mxGeometry width="235" height="94" as="geometry">
            <mxRectangle width="235" height="94" as="alternateBounds" />
          </mxGeometry>
        </mxCell>
        <mxCell id="jTd3bYGisY44pSlO76Ms-88" value="Kehadiran | Kinerja" style="shape=partialRectangle;html=1;whiteSpace=wrap;connectable=0;fillColor=none;top=0;left=0;bottom=0;right=0;overflow=hidden;" vertex="1" parent="jTd3bYGisY44pSlO76Ms-86">
          <mxGeometry x="235" width="235" height="94" as="geometry">
            <mxRectangle width="235" height="94" as="alternateBounds" />
          </mxGeometry>
        </mxCell>
        <mxCell id="jTd3bYGisY44pSlO76Ms-100" value="No" style="text;html=1;points=[];align=left;verticalAlign=top;spacingTop=-4;fontSize=14;fontFamily=Verdana" vertex="1" parent="1">
          <mxGeometry x="90" y="470" width="30" height="20" as="geometry" />
        </mxCell>
        <mxCell id="jTd3bYGisY44pSlO76Ms-101" value="1" style="text;html=1;points=[];align=left;verticalAlign=top;spacingTop=-4;fontSize=14;fontFamily=Verdana" vertex="1" parent="1">
          <mxGeometry x="90" y="570" width="30" height="20" as="geometry" />
        </mxCell>
        <mxCell id="jTd3bYGisY44pSlO76Ms-102" value="2" style="text;html=1;points=[];align=left;verticalAlign=top;spacingTop=-4;fontSize=14;fontFamily=Verdana" vertex="1" parent="1">
          <mxGeometry x="90" y="660" width="30" height="20" as="geometry" />
        </mxCell>
        <mxCell id="jTd3bYGisY44pSlO76Ms-103" value="3" style="text;html=1;points=[];align=left;verticalAlign=top;spacingTop=-4;fontSize=14;fontFamily=Verdana" vertex="1" parent="1">
          <mxGeometry x="90" y="760" width="30" height="20" as="geometry" />
        </mxCell>
        <mxCell id="jTd3bYGisY44pSlO76Ms-104" value="4" style="text;html=1;points=[];align=left;verticalAlign=top;spacingTop=-4;fontSize=14;fontFamily=Verdana" vertex="1" parent="1">
          <mxGeometry x="90" y="850" width="30" height="20" as="geometry" />
        </mxCell>
        <mxCell id="jTd3bYGisY44pSlO76Ms-105" value="5" style="text;html=1;points=[];align=left;verticalAlign=top;spacingTop=-4;fontSize=14;fontFamily=Verdana" vertex="1" parent="1">
          <mxGeometry x="90" y="950" width="30" height="20" as="geometry" />
        </mxCell>
        <mxCell id="jTd3bYGisY44pSlO76Ms-106" value="&lt;&lt; Prev 1 2 3 4 5 6 7 8 9 10 Next &gt;&gt;" style="strokeWidth=1;shadow=0;dashed=0;align=center;html=1;shape=mxgraph.mockup.navigation.pagination;linkText=;fontSize=17;fontColor=#0000ff;fontStyle=4;" vertex="1" parent="1">
          <mxGeometry x="710" y="1020" width="350" height="30" as="geometry" />
        </mxCell>
      </root>
    </mxGraphModel>
  </diagram>
</mxfile>
